HIERARCHY
ROOT hip
{
  OFFSET 0 0 0
  CHANNELS 6 Xposition Yposition Zposition Zrotation Yrotation Xrotation
  JOINT abdomen
  {
    OFFSET 0 20.6881 -0.73152
    CHANNELS 3 Zrotation Xrotation Yrotation
    JOINT chest
    {
      OFFSET 0 11.7043 -0.48768
      CHANNELS 3 Zrotation Xrotation Yrotation
      JOINT neck
      {
        OFFSET 0 22.1894 -2.19456
        CHANNELS 3 Zrotation Xrotation Yrotation
        JOINT head
        {
          OFFSET -0.24384 7.07133 1.2192
          CHANNELS 3 Zrotation Xrotation Yrotation
          JOINT leftEye
          {
            OFFSET 4.14528 8.04674 8.04672
            CHANNELS 3 Zrotation Xrotation Yrotation
            End Site
            {
              OFFSET 1 0 0
            }
          }
          JOINT rightEye
          {
            OFFSET -3.6576 8.04674 8.04672
            CHANNELS 3 Zrotation Xrotation Yrotation
            End Site
            {
              OFFSET 1 0 0
            }
          }
        }
      }
      JOINT rCollar
      {
        OFFSET -2.68224 19.2634 -4.8768
        CHANNELS 3 Zrotation Xrotation Yrotation
        JOINT rShldr
        {
          OFFSET -8.77824 -1.95073 1.46304
          CHANNELS 3 Zrotation Xrotation Yrotation
          JOINT rForeArm
          {
            OFFSET -28.1742 -1.7115 0.48768
            CHANNELS 3 Zrotation Xrotation Yrotation
            JOINT rHand
            {
              OFFSET -22.5879 0.773209 7.07136
              CHANNELS 3 Zrotation Xrotation Yrotation
              JOINT rThumb1
              {
                OFFSET -1.2192 -0.487915 3.41376
                CHANNELS 3 Zrotation Xrotation Yrotation
                JOINT rThumb2
                {
                  OFFSET -3.37035 -0.52449 3.41376
                  CHANNELS 3 Zrotation Xrotation Yrotation
                  End Site
                  {
                    OFFSET -1.78271 -1.18214 1.43049
                  }
                }
              }
              JOINT rIndex1
              {
                OFFSET -7.75947 0.938293 5.60832
                CHANNELS 3 Zrotation Xrotation Yrotation
                JOINT rIndex2
                {
                  OFFSET -2.54057 -0.884171 1.56538
                  CHANNELS 3 Zrotation Xrotation Yrotation
                  End Site
                  {
                    OFFSET -1.62519 -0.234802 1.16502
                  }
                }
              }
              JOINT rMid1
              {
                OFFSET -8.24714 1.18213 3.41376
                CHANNELS 3 Zrotation Xrotation Yrotation
                JOINT rMid2
                {
                  OFFSET -3.10165 -0.590103 1.0647
                  CHANNELS 3 Zrotation Xrotation Yrotation
                  End Site
                  {
                    OFFSET -2.48547 -0.328903 0.83742
                  }
                }
              }
              JOINT rRing1
              {
                OFFSET -8.82822 0.546677 1.51678
                CHANNELS 3 Zrotation Xrotation Yrotation
                JOINT rRing2
                {
                  OFFSET -2.60934 -0.819778 -0.0198488
                  CHANNELS 3 Zrotation Xrotation Yrotation
                  End Site
                  {
                    OFFSET -2.33842 -0.294052 0.168128
                  }
                }
              }
              JOINT rPinky1
              {
                OFFSET -8.27202 -0.0477905 -0.4584
                CHANNELS 3 Zrotation Xrotation Yrotation
                JOINT rPinky2
                {
                  OFFSET -1.82734 -0.647385 -0.700984
                  CHANNELS 3 Zrotation Xrotation Yrotation
                  End Site
                  {
                    OFFSET -1.69225 -0.51767 -0.607171
                  }
                }
              }
            }
          }
        }
      }
      JOINT lCollar
      {
        OFFSET 2.68224 19.2634 -4.8768
        CHANNELS 3 Zrotation Xrotation Yrotation
        JOINT lShldr
        {
          OFFSET 8.77824 -1.95073 1.46304
          CHANNELS 3 Zrotation Xrotation Yrotation
          JOINT lForeArm
          {
            OFFSET 28.1742 -1.7115 0.48768
            CHANNELS 3 Zrotation Xrotation Yrotation
            JOINT lHand
            {
              OFFSET 22.5879 0.773209 7.07136
              CHANNELS 3 Zrotation Xrotation Yrotation
              JOINT lThumb1
              {
                OFFSET 1.2192 -0.487915 3.41376
                CHANNELS 3 Zrotation Xrotation Yrotation
                JOINT lThumb2
                {
                  OFFSET 3.37035 -0.52449 3.41376
                  CHANNELS 3 Zrotation Xrotation Yrotation
                  End Site
                  {
                    OFFSET 1.78271 -1.18214 1.43049
                  }
                }
              }
              JOINT lIndex1
              {
                OFFSET 7.75947 0.938293 5.60832
                CHANNELS 3 Zrotation Xrotation Yrotation
                JOINT lIndex2
                {
                  OFFSET 2.54057 -0.884171 1.56538
                  CHANNELS 3 Zrotation Xrotation Yrotation
                  End Site
                  {
                    OFFSET 1.62519 -0.234802 1.16502
                  }
                }
              }
              JOINT lMid1
              {
                OFFSET 8.24714 1.18213 3.41376
                CHANNELS 3 Zrotation Xrotation Yrotation
                JOINT lMid2
                {
                  OFFSET 3.10165 -0.590103 1.0647
                  CHANNELS 3 Zrotation Xrotation Yrotation
                  End Site
                  {
                    OFFSET 2.48547 -0.328903 0.83742
                  }
                }
              }
              JOINT lRing1
              {
                OFFSET 8.82822 0.546677 1.51678
                CHANNELS 3 Zrotation Xrotation Yrotation
                JOINT lRing2
                {
                  OFFSET 2.60934 -0.819778 -0.0198488
                  CHANNELS 3 Zrotation Xrotation Yrotation
                  End Site
                  {
                    OFFSET 2.33842 -0.294052 0.168128
                  }
                }
              }
              JOINT lPinky1
              {
                OFFSET 8.27202 -0.0477905 -0.4584
                CHANNELS 3 Zrotation Xrotation Yrotation
                JOINT lPinky2
                {
                  OFFSET 1.82734 -0.647385 -0.700984
                  CHANNELS 3 Zrotation Xrotation Yrotation
                  End Site
                  {
                    OFFSET 1.69225 -0.51767 -0.607171
                  }
                }
              }
            }
          }
        }
      }
    }
  }
  JOINT rButtock
  {
    OFFSET -8.77824 4.35084 1.2192
    CHANNELS 3 Zrotation Xrotation Yrotation
    JOINT rThigh
    {
      OFFSET 0 -1.70687 -2.19456
      CHANNELS 3 Zrotation Xrotation Yrotation
      JOINT rShin
      {
        OFFSET 0 -36.8199 0.73152
        CHANNELS 3 Zrotation Xrotation Yrotation
        JOINT rFoot
        {
          OFFSET 0.73152 -45.1104 -5.12064
          CHANNELS 3 Zrotation Xrotation Yrotation
          End Site
          {
            OFFSET -1.1221 -3.69964 12.103
          }
        }
      }
    }
  }
  JOINT lButtock
  {
    OFFSET 8.77824 4.35084 1.2192
    CHANNELS 3 Zrotation Xrotation Yrotation
    JOINT lThigh
    {
      OFFSET 0 -1.70687 -2.19456
      CHANNELS 3 Zrotation Xrotation Yrotation
      JOINT lShin
      {
        OFFSET 0 -36.8199 0.73152
        CHANNELS 3 Zrotation Xrotation Yrotation
        JOINT lFoot
        {
          OFFSET -0.73152 -45.1104 -5.12064
          CHANNELS 3 Zrotation Xrotation Yrotation
          End Site
          {
            OFFSET 1.1221 -3.69964 12.103
          }
        }
      }
    }
  }
}
MOTION
Frames:	5
Frame Time:	0.03333
0.0 0.0 0.0 0.0 0.0 0.0 0.0 0.0 0.0 0.0 0.0 0.0 0.0 0.0 0.0 0.0 0.0 0.0 0.0 0.0 0.0 0.0 0.0 0.0 0.0 0.0 0.0 0.0 0.0 0.0 0.0 0.0 0.0 0.0 0.0 0.0 0.0 0.0 0.0 0.0 0.0 0.0 0.0 0.0 0.0 0.0 0.0 0.0 0.0 0.0 0.0 0.0 0.0 0.0 0.0 0.0 0.0 0.0 0.0 0.0 0.0 0.0 0.0 0.0 0.0 0.0 0.0 0.0 0.0 0.0 0.0 0.0 0.0 0.0 0.0 0.0 0.0 0.0 0.0 0.0 0.0 0.0 0.0 0.0 0.0 0.0 0.0 0.0 0.0 0.0 0.0 0.0 0.0 0.0 0.0 0.0 0.0 0.0 0.0 0.0 0.0 0.0 0.0 0.0 0.0 0.0 0.0 0.0 0.0 0.0 0.0 0.0 0.0 0.0 0.0 0.0 0.0 0.0 0.0 0.0 0.0 0.0 0.0 0.0 0.0 0.0 0.0 0.0 0.0 0.0 0.0 0.0
5.9636000000000005 55.215599999999995 -212.142 -10.684205 -22.57783 7.939489 4.678391 3.713916 91.538139 -3.708195 -4.125434 -82.156951 4.44337 27.860363 163.998634 -9.418725 29.661265 -160.618547 0.001202 0.0 0.000745 0.000783 0.0 0.002087 4.209665 -43.443135 -8.382876 -39.278335 -45.429021 -85.912979 -15.201914 -41.776236 -148.778947 142.428166 -51.224989 127.746665 -175.328628 -12.97549 89.797644 -91.837667 12.831913 35.171741 -19.223827 24.165684 13.423361 178.60446 -35.353951 106.529579 -8.41583 20.880549 5.645321 -17.888975 42.279243 14.421578 -0.021014 -1.643601 -0.517507 8.585089 19.54006 2.740027 54.230069 87.259044 -14.512907 -95.098396 -51.003566 -93.30697 142.973634 39.431691 -147.390245 99.951323 44.679144 -56.348579 -139.969445 23.039381 60.783148 34.590874 60.217823 -18.266941 85.829173 38.630585 -47.955629 -10.26352 -21.087794 -23.178767 151.352994 -17.158405 -121.133244 -95.744246 -70.678778 -42.635079 36.036271 51.723027 -29.832436 114.085795 59.196917 -104.645678 145.121971 1.973997 179.749758 154.315644 -12.531557 177.509081 139.223841 -4.397043 136.391123 -54.422286 81.915673 17.024184 -179.999413 75.748436 -0.000401 129.955993 78.166133 -37.140777 -48.172481 -1.474274 -1.8691 -118.137368 -62.65522 -30.856281 -0.001231 -0.001425 -0.002462 71.853168 -55.342541 -25.2101 -82.081281 -6.606288 37.27649 127.6004 28.272134 -45.318856
5.9204 55.210499999999996 -212.1 -10.711745 -22.564363 8.048335 7.131724 6.036694 -0.0 1.78628 -5.830252 9.577772 -10.502746 16.362414 -62.97822 24.216971 4.625233 64.581663 0.000805 -0.0 -0.001634 0.000386 -0.0 -0.00029 -152.12912 14.113058 157.556297 -38.620857 -14.095663 34.657488 12.393207 13.0375 -138.022889 160.238438 -28.284414 142.575713 -68.482237 37.954584 35.659312 -11.746007 -5.69498 28.972075 11.982955 -21.346477 -5.060311 172.648816 -45.69456 100.899437 -36.036383 51.72263 29.833438 3.262614 0.431689 0.125494 0.000769 0.063729 0.020333 6.908158 29.712022 4.676244 8.368067 26.426756 7.362309 -23.271184 -40.053147 -23.558158 149.905569 22.421867 -154.975486 -130.47579 -6.57333 -162.199636 4.340845 -2.564155 -92.485503 6.000232 13.394302 0.41635 166.630981 -4.304894 -89.772108 126.218886 10.124884 -60.416348 10.571118 15.013314 -6.865766 66.671978 48.455093 -49.914291 160.674178 -6.668048 -143.243795 -2.655757 1.632975 -0.587385 145.100408 -1.480106 178.663068 73.593655 -78.004998 95.236376 -32.013949 83.320528 -6.233449 148.868778 12.92452 142.970691 179.982257 75.749476 0.01214 122.712373 77.952691 56.501697 1.69126 39.818929 -10.079338 -26.723578 -17.498002 -25.006815 -179.984125 75.749476 -0.014007 -148.396305 -0.694867 -0.0 -67.481009 83.753995 -48.349157 -24.457531 59.947843 121.403428
5.8887 55.2042 -212.072 -10.671055 -22.67218 8.067268 7.15401 6.118028 -0.468483 1.845162 -5.818589 10.030292 9.503184 15.965753 81.987258 -19.878071 2.537664 -81.083018 0.003115 0.0 0.002997 0.003115 0.0 0.002997 -3.670828 17.552109 4.527871 66.788305 3.686591 4.964313 -173.697315 4.142404 42.601373 153.15672 -40.076902 137.013628 -4.166432 4.057488 0.783464 -72.498671 24.847321 67.338611 1.50663 -2.48456 -0.829101 -6.552105 22.987325 6.700039 0.540628 -1.590026 -0.294921 -166.230109 -13.923824 144.079302 -0.014718 -1.32289 -0.417582 7.945134 23.998868 3.53413 8.367056 26.426876 7.362934 -147.406374 10.263396 -143.22431 49.447338 -86.458373 71.119512 48.335174 -34.910706 83.939897 -85.384213 -24.843948 88.023143 161.982141 48.148956 -135.552335 121.364632 30.330276 -71.95868 -52.380731 -46.258438 -34.366093 -159.641892 -69.973357 -102.397221 163.257087 -27.04558 -116.67974 160.098598 -4.901258 -142.968282 169.557602 -23.67155 -143.912531 72.351893 72.975328 -90.217824 158.787691 -26.830289 -179.935438 23.83999 -36.727259 22.931498 147.036244 12.939914 143.70869 2.6e-05 0.000285 -3.4e-05 -11.257107 6.808331 59.222113 43.794432 12.669667 8.309169 162.871592 59.713475 102.746524 0.00201 -0.000661 0.000502 70.178828 -57.43853 153.257469 85.387879 -4.504031 -20.395198 -147.26029 12.438281 49.849578
5.844 55.1961 -212.071 -10.724748 -22.96438 8.21747 4.851073 3.823297 92.762074 -3.509074 -4.093301 -83.388117 -10.297387 23.578743 -103.226313 23.685 19.851345 102.951978 -0.003784 0.0 -0.000572 0.001932 -0.0 -0.000495 -155.717045 -4.925449 162.135192 -115.923669 66.596134 69.800024 120.319236 -82.86673 -19.681735 158.385975 -31.861941 141.164118 -0.544639 0.535962 0.085484 -8.631042 9.46301 7.679243 -10.285778 14.665116 6.659771 -162.40263 -12.381367 110.215018 -160.827806 -7.141672 143.315836 -163.781573 -6.246516 143.109726 0.000936 -0.018526 -0.005899 -6.629151 62.751947 19.318378 -152.877257 39.991623 -148.058472 -81.719213 -52.628818 -80.697566 80.166125 68.372356 -83.260719 -168.549952 -1.667094 -110.434688 144.442933 -65.593154 -82.48023 -165.819075 -33.487137 -140.630038 175.198727 -12.845966 -89.806889 78.747861 7.841145 -25.6611 138.763423 4.487163 -115.031199 7.3115 27.523039 1.375013 160.67409 -6.668051 -143.243838 113.981376 58.95899 -104.321665 71.925834 72.974132 -89.771823 159.841341 0.083842 -176.232759 -6.229392 18.789385 -5.573252 23.116933 -40.101482 23.509752 -0.003281 -0.001268 -0.00164 -9.65789 5.082511 -141.623255 -44.132556 -32.935534 -97.402306 92.120315 24.113771 160.786853 0.000486 0.001141 -0.000625 70.267782 -57.458543 153.244493 81.011447 4.677813 -124.785317 -142.885611 -55.784483 -34.444325
